<svg xmlns="http://www.w3.org/2000/svg" width="60" height="60" viewBox="0 0 60 60">
  <path d="M2.357,8.783H54.269c1.548,0,3.581-.221,4.488.45,1.29,0.954.9,3.934,0.9,6.144v29.3c0,1.66.277,4.036-.449,5.02-1.123,1.522-8.744.9-11.594,0.9H13.353c-3.4,0-11.869.845-12.791-1.424-0.6-1.464-.15-7.152-0.15-9.216V18.3c0-2.072-.459-7.316.374-8.542A3.791,3.791,0,0,1,2.357,8.783ZM9.089,13.5L30.034,31.786,50.978,13.5H9.089ZM5.125,16.351V43.025L20.384,29.688Zm49.668,0.075L39.758,29.688l15.11,13.262h0.075V23.245C54.942,22.116,55.218,16.919,54.793,16.426ZM23.975,32.835L9.089,45.873H50.978l-0.3-.375L36.167,32.835c-1.342.9-4.5,4.921-6.508,4.5C27.265,36.823,26.024,33.839,23.975,32.835Z" style='fill:currentColor'/>
</svg>
