<svg  xmlns="http://www.w3.org/2000/svg" width="64" height="64" viewBox="0 0 640 640">
<path d="m326.33 274.26v109.76h181.49c-7.37 47.115-54.886 138-181.49 138-109.24 0-198.37-90.485-198.37-202.01 0-111.51 89.127-202 198.37-202 62.127 0 103.76 26.516 127.52 49.359l86.883-83.635c-55.749-52.229-128-83.753-214.36-83.753-176.88 0-320.01 143.13-320.01 320.01s143.13 320.01 320.01 320.01c184.64 0 307.26-129.88 307.26-312.65 0-21-2.244-36.993-5.008-52.997l-302.25-0.13-0.047 0.024z" style='fill:currentColor'/>
</svg>
